<svg width="100%" viewBox="0 0 1300 880" role="img" xmlns="http://www.w3.org/2000/svg">
<title>Print Shop schema map: the Convex tables grouped by domain, coloured by storage kind, with foreign keys and the users hub.</title>
<desc>A data model map. Tables are grouped into domains: identity and RBAC, the credit economy, generation, platform config, the marketplace, and curation and moderation. Each table node names its key fields and foreign keys. Colour marks the storage kind: mutable, append-only, cache or singleton, and join table, with the users table as the central hub. Arrows are foreign keys pointing from child to parent.</desc>
<style>
text { font-family: "Anthropic Sans", -apple-system, "system-ui", "Segoe UI", sans-serif; }
</style>
<defs>
<marker id="arrow" viewBox="0 0 10 10" refX="8" refY="5" markerWidth="6" markerHeight="6" orient="auto-start-reverse"><path d="M2 1L8 5L2 9" fill="none" stroke="context-stroke" stroke-width="1.5" stroke-linecap="round" stroke-linejoin="round"/></marker>
</defs>

<rect x="0" y="0" width="1300" height="880" fill="#1c1b19"/>

<text x="650" y="38" text-anchor="middle" fill="#faf9f5" font-size="18" font-weight="600">Schema map &#8212; tables, foreign keys, storage kind</text>
<text x="650" y="59" text-anchor="middle" fill="#b5b3aa" font-size="12">convex/schema.ts, grouped by domain &#183; arrows are foreign keys (child &#8594; parent) &#183; as of 2026-06-16</text>

<!-- ===== IDENTITY & RBAC ===== -->
<rect x="30" y="86" width="400" height="232" rx="12" fill="none" stroke="#6f6e68" stroke-width="0.75"/>
<text x="44" y="106" fill="#c2c0b6" font-size="11" font-weight="600">Identity &amp; RBAC</text>
<rect x="46" y="116" width="368" height="54" rx="9" fill="#085041" stroke="#5dcaa5" stroke-width="1"/>
<text x="58" y="136" fill="#9fe1cb" font-size="12" font-weight="600">users&#160;&#160;<tspan fill="#5dcaa5" font-size="9" font-weight="400">the hub</tspan></text>
<text x="58" y="158" fill="#c6efe0" font-size="9">role &#183; tierId&#8594;earningTiers &#183; handle &#183; displayName &#183; archivedAt (soft delete)</text>
<rect x="46" y="178" width="178" height="58" rx="9" fill="#0a3a6b" stroke="#85b7eb" stroke-width="0.75"/>
<text x="58" y="198" fill="#b5d4f4" font-size="11" font-weight="600">earningTiers</text>
<text x="58" y="214" fill="#85b7eb" font-size="9">sharePercent</text>
<text x="58" y="228" fill="#85b7eb" font-size="9">isDefault &#183; archivedAt</text>
<rect x="236" y="178" width="178" height="58" rx="9" fill="#5b1717" stroke="#d98a8a" stroke-width="0.75"/>
<text x="248" y="198" fill="#f0c6c6" font-size="11" font-weight="600">userRoleHistory</text>
<text x="248" y="214" fill="#d98a8a" font-size="9">append-only &#183; userId&#8594;users</text>
<text x="248" y="228" fill="#d98a8a" font-size="9">fromRole, toRole, changedBy</text>
<rect x="46" y="244" width="368" height="56" rx="9" fill="#5b1717" stroke="#d98a8a" stroke-width="0.75"/>
<text x="58" y="264" fill="#f0c6c6" font-size="11" font-weight="600">userTierHistory</text>
<text x="58" y="282" fill="#d98a8a" font-size="9">append-only &#183; userId&#8594;users &#183; fromTier, toTier, changedBy, reason</text>

<!-- ===== CREDIT ECONOMY ===== -->
<rect x="30" y="332" width="400" height="216" rx="12" fill="none" stroke="#6f6e68" stroke-width="0.75"/>
<text x="44" y="352" fill="#c2c0b6" font-size="11" font-weight="600">Credit economy</text>
<rect x="46" y="362" width="368" height="64" rx="9" fill="#5b1717" stroke="#d98a8a" stroke-width="1"/>
<text x="58" y="382" fill="#f0c6c6" font-size="12" font-weight="600">creditTransactions&#160;&#160;<tspan font-size="9" font-weight="400">append-only ledger &#183; system of record</tspan></text>
<text x="58" y="400" fill="#d98a8a" font-size="9">userId&#8594;users &#183; amount &#183; type &#183; occurredAt &#183; isPoolTransaction</text>
<text x="58" y="416" fill="#d98a8a" font-size="9">snapshots + relatedDesignId&#8594;designs &#183; relatedOrderId&#8594;orders</text>
<rect x="46" y="434" width="178" height="58" rx="9" fill="#2a2926" stroke="#6f6e68" stroke-width="0.75"/>
<text x="58" y="454" fill="#d3d1c7" font-size="11" font-weight="600">creditBalances</text>
<text x="58" y="470" fill="#9a988f" font-size="9">cache of SUM(amount)</text>
<text x="58" y="484" fill="#9a988f" font-size="9">userId&#8594;users &#183; balance</text>
<rect x="236" y="434" width="178" height="58" rx="9" fill="#2a2926" stroke="#6f6e68" stroke-width="0.75"/>
<text x="248" y="454" fill="#d3d1c7" font-size="11" font-weight="600">grantPool</text>
<text x="248" y="470" fill="#9a988f" font-size="9">singleton reserve</text>
<text x="248" y="484" fill="#9a988f" font-size="9">balance</text>

<!-- ===== GENERATION ===== -->
<rect x="450" y="86" width="380" height="232" rx="12" fill="none" stroke="#6f6e68" stroke-width="0.75"/>
<text x="464" y="106" fill="#c2c0b6" font-size="11" font-weight="600">Generation</text>
<rect x="466" y="116" width="348" height="50" rx="9" fill="#0a3a6b" stroke="#85b7eb" stroke-width="0.75"/>
<text x="478" y="135" fill="#b5d4f4" font-size="11" font-weight="600">stylePresets</text>
<text x="478" y="152" fill="#85b7eb" font-size="9">promptPrefix / promptSuffix &#183; creditCost &#183; archivedAt</text>
<rect x="466" y="174" width="348" height="58" rx="9" fill="#0a3a6b" stroke="#85b7eb" stroke-width="0.75"/>
<text x="478" y="194" fill="#b5d4f4" font-size="11" font-weight="600">generations</text>
<text x="478" y="210" fill="#85b7eb" font-size="9">ownerId&#8594;users &#183; presetId&#8594;stylePresets &#183; status</text>
<text x="478" y="224" fill="#85b7eb" font-size="9">storageId &#183; creditsCharged &#183; tokensConsumed</text>
<rect x="466" y="240" width="170" height="58" rx="9" fill="#0a3a6b" stroke="#85b7eb" stroke-width="0.75"/>
<text x="478" y="260" fill="#b5d4f4" font-size="11" font-weight="600">blocklistEntries</text>
<text x="478" y="276" fill="#85b7eb" font-size="9">substring match</text>
<text x="478" y="290" fill="#85b7eb" font-size="9">admin-managed</text>
<rect x="648" y="240" width="166" height="58" rx="9" fill="#0a3a6b" stroke="#85b7eb" stroke-width="0.75"/>
<text x="660" y="260" fill="#b5d4f4" font-size="11" font-weight="600">rateLimitBuckets</text>
<text x="660" y="276" fill="#85b7eb" font-size="9">userId &#183; bucket (per-hour)</text>
<text x="660" y="290" fill="#85b7eb" font-size="9">scheduled cleanup</text>

<!-- ===== CONFIG ===== -->
<rect x="450" y="332" width="380" height="96" rx="12" fill="none" stroke="#6f6e68" stroke-width="0.75"/>
<text x="464" y="352" fill="#c2c0b6" font-size="11" font-weight="600">Platform config</text>
<rect x="466" y="362" width="348" height="54" rx="9" fill="#2a2926" stroke="#6f6e68" stroke-width="0.75"/>
<text x="478" y="382" fill="#d3d1c7" font-size="11" font-weight="600">platformSettings&#160;&#160;<tspan font-size="9" font-weight="400" fill="#9a988f">singleton</tspan></text>
<text x="478" y="402" fill="#9a988f" font-size="9">signupBonus &#183; rateLimits &#183; creditDollarValue &#183; platformName &#183; accentColor</text>

<!-- ===== MARKETPLACE ===== -->
<rect x="850" y="86" width="420" height="262" rx="12" fill="none" stroke="#6f6e68" stroke-width="0.75"/>
<text x="864" y="106" fill="#c2c0b6" font-size="11" font-weight="600">Marketplace</text>
<rect x="866" y="116" width="388" height="58" rx="9" fill="#0a3a6b" stroke="#85b7eb" stroke-width="0.75"/>
<text x="878" y="136" fill="#b5d4f4" font-size="11" font-weight="600">designs</text>
<text x="878" y="152" fill="#85b7eb" font-size="9">ownerId&#8594;users &#183; categoryId&#8594;categories &#183; productTypes</text>
<text x="878" y="166" fill="#85b7eb" font-size="9">status (pending/approved/rejected/removed) &#183; salesCount</text>
<rect x="866" y="182" width="185" height="50" rx="9" fill="#0a3a6b" stroke="#85b7eb" stroke-width="0.75"/>
<text x="878" y="201" fill="#b5d4f4" font-size="11" font-weight="600">categories</text>
<text x="878" y="218" fill="#85b7eb" font-size="9">name &#183; slug</text>
<rect x="1069" y="182" width="185" height="50" rx="9" fill="#0a3a6b" stroke="#85b7eb" stroke-width="0.75"/>
<text x="1081" y="201" fill="#b5d4f4" font-size="11" font-weight="600">productTypes</text>
<text x="1081" y="218" fill="#85b7eb" font-size="9">sticker/mug/tee/poster &#183; price</text>
<rect x="866" y="240" width="388" height="66" rx="9" fill="#5b1717" stroke="#d98a8a" stroke-width="1"/>
<text x="878" y="260" fill="#f0c6c6" font-size="11" font-weight="600">orders&#160;&#160;<tspan font-size="9" font-weight="400">append-only &#183; status placed &#8594; refunded</tspan></text>
<text x="878" y="278" fill="#d98a8a" font-size="9">buyerId&#8594;users &#183; designerId&#8594;users &#183; designId&#8594;designs</text>
<text x="878" y="294" fill="#d98a8a" font-size="9">snapshots: price, tierName, sharePercent, creditDollarValue</text>

<!-- ===== CURATION & MODERATION ===== -->
<rect x="850" y="362" width="420" height="186" rx="12" fill="none" stroke="#6f6e68" stroke-width="0.75"/>
<text x="864" y="382" fill="#c2c0b6" font-size="11" font-weight="600">Curation &amp; moderation</text>
<rect x="866" y="392" width="388" height="50" rx="9" fill="#0a3a6b" stroke="#85b7eb" stroke-width="0.75"/>
<text x="878" y="411" fill="#b5d4f4" font-size="11" font-weight="600">collections</text>
<text x="878" y="428" fill="#85b7eb" font-size="9">curatorId&#8594;users &#183; title &#183; slug &#183; archivedAt</text>
<rect x="866" y="450" width="185" height="56" rx="9" fill="#3c3489" stroke="#afa9ec" stroke-width="0.75"/>
<text x="878" y="470" fill="#cecbf6" font-size="11" font-weight="600">collectionDesigns</text>
<text x="878" y="486" fill="#afa9ec" font-size="9">join &#183; collectionId&#8594;collections</text>
<text x="878" y="500" fill="#afa9ec" font-size="9">designId&#8594;designs &#183; sortOrder</text>
<rect x="1069" y="450" width="185" height="56" rx="9" fill="#0a3a6b" stroke="#85b7eb" stroke-width="0.75"/>
<text x="1081" y="470" fill="#b5d4f4" font-size="11" font-weight="600">flags</text>
<text x="1081" y="486" fill="#85b7eb" font-size="9">flaggerId&#8594;users</text>
<text x="1081" y="500" fill="#85b7eb" font-size="9">targetType/targetId (poly)</text>

<!-- within-cluster FK edges -->
<line x1="135" y1="178" x2="135" y2="172" stroke="#8a8980" stroke-width="1.25" marker-end="url(#arrow)"/>
<text x="142" y="176" fill="#8a8980" font-size="8">tierId</text>
<line x1="321" y1="178" x2="250" y2="172" stroke="#8a8980" stroke-width="1.25" marker-end="url(#arrow)"/>
<line x1="640" y1="174" x2="600" y2="166" stroke="#8a8980" stroke-width="1.25" marker-end="url(#arrow)"/>
<text x="612" y="172" fill="#8a8980" font-size="8">presetId</text>
<line x1="958" y1="182" x2="958" y2="174" stroke="#8a8980" stroke-width="1.25" marker-end="url(#arrow)"/>
<text x="964" y="180" fill="#8a8980" font-size="8">categoryId</text>
<line x1="1000" y1="240" x2="1000" y2="174" stroke="#8a8980" stroke-width="1.25" marker-end="url(#arrow)"/>
<text x="1006" y="220" fill="#8a8980" font-size="8">designId</text>
<line x1="958" y1="450" x2="958" y2="442" stroke="#8a8980" stroke-width="1.25" marker-end="url(#arrow)"/>
<text x="964" y="448" fill="#8a8980" font-size="8">collectionId</text>

<!-- hub note -->
<rect x="450" y="446" width="380" height="100" rx="10" fill="#06352b" stroke="#5dcaa5" stroke-width="0.75"/>
<text x="466" y="468" fill="#9fe1cb" font-size="11" font-weight="600">users is the hub</text>
<text x="466" y="488" fill="#c6efe0" font-size="9.5">designs, generations, orders, creditTransactions, creditBalances,</text>
<text x="466" y="503" fill="#c6efe0" font-size="9.5">collections, flags and both *History tables all carry a userId/</text>
<text x="466" y="518" fill="#c6efe0" font-size="9.5">ownerId foreign key to users (annotated on each node above).</text>
<text x="466" y="536" fill="#5dcaa5" font-size="9">Cross-cluster FKs are shown as text, not lines, to keep the map legible.</text>

<!-- legend -->
<rect x="30" y="572" width="14" height="14" rx="3" fill="#0a3a6b" stroke="#85b7eb" stroke-width="0.75"/><text x="50" y="583" fill="#c2c0b6" font-size="10">mutable (edit freely)</text>
<rect x="190" y="572" width="14" height="14" rx="3" fill="#5b1717" stroke="#d98a8a" stroke-width="0.75"/><text x="210" y="583" fill="#c2c0b6" font-size="10">append-only (never UPDATE/DELETE)</text>
<rect x="430" y="572" width="14" height="14" rx="3" fill="#2a2926" stroke="#6f6e68" stroke-width="0.75"/><text x="450" y="583" fill="#c2c0b6" font-size="10">cache / singleton</text>
<rect x="580" y="572" width="14" height="14" rx="3" fill="#3c3489" stroke="#afa9ec" stroke-width="0.75"/><text x="600" y="583" fill="#c2c0b6" font-size="10">join table</text>
<rect x="680" y="572" width="14" height="14" rx="3" fill="#085041" stroke="#5dcaa5" stroke-width="0.75"/><text x="700" y="583" fill="#c2c0b6" font-size="10">users (hub)</text>
<line x1="790" y1="579" x2="818" y2="579" stroke="#8a8980" stroke-width="1.25" marker-end="url(#arrow)"/><text x="824" y="583" fill="#c2c0b6" font-size="10">foreign key (child &#8594; parent)</text>

<text x="30" y="612" fill="#b5b3aa" font-size="10">Schema-first: every table is defined in convex/schema.ts before any function reads it. Soft delete (archivedAt) for most tables; the ledgers are strictly append-only.</text>
<text x="30" y="630" fill="#b5b3aa" font-size="10">Source: MILESTONES.md (per-milestone tables), docs/concepts/append-only-ledger.md, snapshot-rule.md, owner-permission-pattern.md, README (Conventions).</text>
</svg>
