<svg width="100%" viewBox="0 0 1100 812" role="img" xmlns="http://www.w3.org/2000/svg">
<title>Print Shop permission matrix: the four roles and the computed Owner permission against the operations each may perform.</title>
<desc>A grid. Columns are the four roles Guest, Member, Moderator and Admin. Rows are operations. Each cell shows allowed (green check), denied (red cross), own-only (coral, the computed Owner permission) or not-applicable. Two operations are highlighted as teaching counterexamples: a moderator may edit only their own design metadata, never another member's; and no role, not even an admin, may hard-delete an append-only ledger row.</desc>
<style>
text { font-family: "Anthropic Sans", -apple-system, "system-ui", "Segoe UI", sans-serif; }
</style>

<rect x="0" y="0" width="1100" height="812" fill="#1c1b19"/>

<text x="550" y="38" text-anchor="middle" fill="#faf9f5" font-size="18" font-weight="600">Print Shop permission matrix</text>
<text x="550" y="59" text-anchor="middle" fill="#b5b3aa" font-size="12">four roles + the computed Owner cross-cut &#183; who may do what &#183; as of 2026-06-16</text>

<!-- ===== HEADER ROW ===== -->
<text x="52" y="110" fill="#c2c0b6" font-size="13" font-weight="600">Operation</text>

<rect x="464" y="82" width="144" height="40" rx="8" fill="#45443f" stroke="#b4b2a9" stroke-width="0.75"/>
<text x="536" y="101" text-anchor="middle" fill="#d3d1c7" font-size="13" font-weight="600">Guest</text>
<text x="536" y="116" text-anchor="middle" fill="#b4b2a9" font-size="9">unauthenticated</text>

<rect x="616" y="82" width="144" height="40" rx="8" fill="#085041" stroke="#5dcaa5" stroke-width="0.75"/>
<text x="688" y="101" text-anchor="middle" fill="#9fe1cb" font-size="13" font-weight="600">Member</text>
<text x="688" y="116" text-anchor="middle" fill="#5dcaa5" font-size="9">signed-in</text>

<rect x="768" y="82" width="144" height="40" rx="8" fill="#3c3489" stroke="#afa9ec" stroke-width="0.75"/>
<text x="840" y="101" text-anchor="middle" fill="#cecbf6" font-size="13" font-weight="600">Moderator</text>
<text x="840" y="116" text-anchor="middle" fill="#afa9ec" font-size="9">member + review/curate</text>

<rect x="920" y="82" width="144" height="40" rx="8" fill="#633806" stroke="#ef9f27" stroke-width="0.75"/>
<text x="992" y="101" text-anchor="middle" fill="#facb75" font-size="13" font-weight="600">Admin</text>
<text x="992" y="116" text-anchor="middle" fill="#ef9f27" font-size="9">manages everything</text>

<!-- ===== ROW 0: Browse approved ===== -->
<text x="52" y="150" fill="#d3d1c7" font-size="11.5">Browse approved designs (public)</text>
<rect x="464" y="130" width="144" height="28" rx="6" fill="#0c3d28" stroke="#5dca8d" stroke-width="0.75"/><text x="536" y="149" text-anchor="middle" fill="#9ce6bb" font-size="12">&#10003;</text>
<rect x="616" y="130" width="144" height="28" rx="6" fill="#0c3d28" stroke="#5dca8d" stroke-width="0.75"/><text x="688" y="149" text-anchor="middle" fill="#9ce6bb" font-size="12">&#10003;</text>
<rect x="768" y="130" width="144" height="28" rx="6" fill="#0c3d28" stroke="#5dca8d" stroke-width="0.75"/><text x="840" y="149" text-anchor="middle" fill="#9ce6bb" font-size="12">&#10003;</text>
<rect x="920" y="130" width="144" height="28" rx="6" fill="#0c3d28" stroke="#5dca8d" stroke-width="0.75"/><text x="992" y="149" text-anchor="middle" fill="#9ce6bb" font-size="12">&#10003;</text>

<!-- ===== ROW 1: Sign up / sign in ===== -->
<text x="52" y="186" fill="#d3d1c7" font-size="11.5">Sign up / sign in</text>
<rect x="464" y="166" width="144" height="28" rx="6" fill="#0c3d28" stroke="#5dca8d" stroke-width="0.75"/><text x="536" y="185" text-anchor="middle" fill="#9ce6bb" font-size="12">&#10003;</text>
<rect x="616" y="166" width="144" height="28" rx="6" fill="#2a2926" stroke="#6f6e68" stroke-width="0.75"/><text x="688" y="185" text-anchor="middle" fill="#9a988f" font-size="12">&#8212;</text>
<rect x="768" y="166" width="144" height="28" rx="6" fill="#2a2926" stroke="#6f6e68" stroke-width="0.75"/><text x="840" y="185" text-anchor="middle" fill="#9a988f" font-size="12">&#8212;</text>
<rect x="920" y="166" width="144" height="28" rx="6" fill="#2a2926" stroke="#6f6e68" stroke-width="0.75"/><text x="992" y="185" text-anchor="middle" fill="#9a988f" font-size="12">&#8212;</text>

<!-- ===== ROW 2: File a flag ===== -->
<text x="52" y="222" fill="#d3d1c7" font-size="11.5">File a flag (report a design or user)</text>
<rect x="464" y="202" width="144" height="28" rx="6" fill="#5b1717" stroke="#d98a8a" stroke-width="0.75"/><text x="536" y="221" text-anchor="middle" fill="#f0c6c6" font-size="12">&#10007;</text>
<rect x="616" y="202" width="144" height="28" rx="6" fill="#0c3d28" stroke="#5dca8d" stroke-width="0.75"/><text x="688" y="221" text-anchor="middle" fill="#9ce6bb" font-size="12">&#10003;</text>
<rect x="768" y="202" width="144" height="28" rx="6" fill="#0c3d28" stroke="#5dca8d" stroke-width="0.75"/><text x="840" y="221" text-anchor="middle" fill="#9ce6bb" font-size="12">&#10003;</text>
<rect x="920" y="202" width="144" height="28" rx="6" fill="#0c3d28" stroke="#5dca8d" stroke-width="0.75"/><text x="992" y="221" text-anchor="middle" fill="#9ce6bb" font-size="12">&#10003;</text>

<!-- ===== ROW 3: Buy a design ===== -->
<text x="52" y="258" fill="#d3d1c7" font-size="11.5">Buy a design (spend credits)</text>
<rect x="464" y="238" width="144" height="28" rx="6" fill="#5b1717" stroke="#d98a8a" stroke-width="0.75"/><text x="536" y="257" text-anchor="middle" fill="#f0c6c6" font-size="12">&#10007;</text>
<rect x="616" y="238" width="144" height="28" rx="6" fill="#0c3d28" stroke="#5dca8d" stroke-width="0.75"/><text x="688" y="257" text-anchor="middle" fill="#9ce6bb" font-size="12">&#10003;</text>
<rect x="768" y="238" width="144" height="28" rx="6" fill="#0c3d28" stroke="#5dca8d" stroke-width="0.75"/><text x="840" y="257" text-anchor="middle" fill="#9ce6bb" font-size="12">&#10003;</text>
<rect x="920" y="238" width="144" height="28" rx="6" fill="#0c3d28" stroke="#5dca8d" stroke-width="0.75"/><text x="992" y="257" text-anchor="middle" fill="#9ce6bb" font-size="12">&#10003;</text>

<!-- ===== ROW 4: Generate an image ===== -->
<text x="52" y="294" fill="#d3d1c7" font-size="11.5">Generate an image (costs credits)</text>
<rect x="464" y="274" width="144" height="28" rx="6" fill="#5b1717" stroke="#d98a8a" stroke-width="0.75"/><text x="536" y="293" text-anchor="middle" fill="#f0c6c6" font-size="12">&#10007;</text>
<rect x="616" y="274" width="144" height="28" rx="6" fill="#0c3d28" stroke="#5dca8d" stroke-width="0.75"/><text x="688" y="293" text-anchor="middle" fill="#9ce6bb" font-size="12">&#10003;</text>
<rect x="768" y="274" width="144" height="28" rx="6" fill="#0c3d28" stroke="#5dca8d" stroke-width="0.75"/><text x="840" y="293" text-anchor="middle" fill="#9ce6bb" font-size="12">&#10003;</text>
<rect x="920" y="274" width="144" height="28" rx="6" fill="#0c3d28" stroke="#5dca8d" stroke-width="0.75"/><text x="992" y="293" text-anchor="middle" fill="#9ce6bb" font-size="12">&#10003;</text>

<!-- ===== ROW 5: Publish a design ===== -->
<text x="52" y="330" fill="#d3d1c7" font-size="11.5">Publish a design to the marketplace</text>
<rect x="464" y="310" width="144" height="28" rx="6" fill="#5b1717" stroke="#d98a8a" stroke-width="0.75"/><text x="536" y="329" text-anchor="middle" fill="#f0c6c6" font-size="12">&#10007;</text>
<rect x="616" y="310" width="144" height="28" rx="6" fill="#0c3d28" stroke="#5dca8d" stroke-width="0.75"/><text x="688" y="329" text-anchor="middle" fill="#9ce6bb" font-size="12">&#10003;</text>
<rect x="768" y="310" width="144" height="28" rx="6" fill="#0c3d28" stroke="#5dca8d" stroke-width="0.75"/><text x="840" y="329" text-anchor="middle" fill="#9ce6bb" font-size="12">&#10003;</text>
<rect x="920" y="310" width="144" height="28" rx="6" fill="#0c3d28" stroke="#5dca8d" stroke-width="0.75"/><text x="992" y="329" text-anchor="middle" fill="#9ce6bb" font-size="12">&#10003;</text>

<!-- ===== ROW 6: Edit design metadata (COUNTEREXAMPLE) ===== -->
<rect x="40" y="346" width="4" height="28" rx="2" fill="#f0997b"/>
<text x="52" y="366" fill="#f5c4b3" font-size="11.5" font-weight="600">Edit a design's metadata&#160;&#160;*</text>
<rect x="464" y="346" width="144" height="28" rx="6" fill="#5b1717" stroke="#d98a8a" stroke-width="0.75"/><text x="536" y="365" text-anchor="middle" fill="#f0c6c6" font-size="12">&#10007;</text>
<rect x="616" y="346" width="144" height="28" rx="6" fill="#712b13" stroke="#f0997b" stroke-width="0.75"/><text x="688" y="365" text-anchor="middle" fill="#f5c4b3" font-size="11">own only</text>
<rect x="768" y="346" width="144" height="28" rx="6" fill="#712b13" stroke="#f0997b" stroke-width="1"/><text x="840" y="365" text-anchor="middle" fill="#f5c4b3" font-size="11">own only</text>
<rect x="920" y="346" width="144" height="28" rx="6" fill="#0c3d28" stroke="#5dca8d" stroke-width="0.75"/><text x="992" y="365" text-anchor="middle" fill="#9ce6bb" font-size="11">&#10003; any</text>

<!-- ===== ROW 7: Approve / reject design ===== -->
<text x="52" y="402" fill="#d3d1c7" font-size="11.5">Approve / reject a design (review queue)</text>
<rect x="464" y="382" width="144" height="28" rx="6" fill="#5b1717" stroke="#d98a8a" stroke-width="0.75"/><text x="536" y="401" text-anchor="middle" fill="#f0c6c6" font-size="12">&#10007;</text>
<rect x="616" y="382" width="144" height="28" rx="6" fill="#5b1717" stroke="#d98a8a" stroke-width="0.75"/><text x="688" y="401" text-anchor="middle" fill="#f0c6c6" font-size="12">&#10007;</text>
<rect x="768" y="382" width="144" height="28" rx="6" fill="#0c3d28" stroke="#5dca8d" stroke-width="0.75"/><text x="840" y="401" text-anchor="middle" fill="#9ce6bb" font-size="12">&#10003;</text>
<rect x="920" y="382" width="144" height="28" rx="6" fill="#0c3d28" stroke="#5dca8d" stroke-width="0.75"/><text x="992" y="401" text-anchor="middle" fill="#9ce6bb" font-size="12">&#10003;</text>

<!-- ===== ROW 8: Curate collections / feature ===== -->
<text x="52" y="438" fill="#d3d1c7" font-size="11.5">Curate collections / feature on home</text>
<rect x="464" y="418" width="144" height="28" rx="6" fill="#5b1717" stroke="#d98a8a" stroke-width="0.75"/><text x="536" y="437" text-anchor="middle" fill="#f0c6c6" font-size="12">&#10007;</text>
<rect x="616" y="418" width="144" height="28" rx="6" fill="#5b1717" stroke="#d98a8a" stroke-width="0.75"/><text x="688" y="437" text-anchor="middle" fill="#f0c6c6" font-size="12">&#10007;</text>
<rect x="768" y="418" width="144" height="28" rx="6" fill="#0c3d28" stroke="#5dca8d" stroke-width="0.75"/><text x="840" y="437" text-anchor="middle" fill="#9ce6bb" font-size="12">&#10003;</text>
<rect x="920" y="418" width="144" height="28" rx="6" fill="#0c3d28" stroke="#5dca8d" stroke-width="0.75"/><text x="992" y="437" text-anchor="middle" fill="#9ce6bb" font-size="12">&#10003;</text>

<!-- ===== ROW 9: Resolve flags ===== -->
<text x="52" y="474" fill="#d3d1c7" font-size="11.5">Resolve flags (dismiss / action / escalate)</text>
<rect x="464" y="454" width="144" height="28" rx="6" fill="#5b1717" stroke="#d98a8a" stroke-width="0.75"/><text x="536" y="473" text-anchor="middle" fill="#f0c6c6" font-size="12">&#10007;</text>
<rect x="616" y="454" width="144" height="28" rx="6" fill="#5b1717" stroke="#d98a8a" stroke-width="0.75"/><text x="688" y="473" text-anchor="middle" fill="#f0c6c6" font-size="12">&#10007;</text>
<rect x="768" y="454" width="144" height="28" rx="6" fill="#0c3d28" stroke="#5dca8d" stroke-width="0.75"/><text x="840" y="473" text-anchor="middle" fill="#9ce6bb" font-size="12">&#10003;</text>
<rect x="920" y="454" width="144" height="28" rx="6" fill="#0c3d28" stroke="#5dca8d" stroke-width="0.75"/><text x="992" y="473" text-anchor="middle" fill="#9ce6bb" font-size="12">&#10003;</text>

<!-- ===== ROW 10: Edit own profile ===== -->
<text x="52" y="510" fill="#d3d1c7" font-size="11.5">Edit a user profile</text>
<rect x="464" y="490" width="144" height="28" rx="6" fill="#5b1717" stroke="#d98a8a" stroke-width="0.75"/><text x="536" y="509" text-anchor="middle" fill="#f0c6c6" font-size="12">&#10007;</text>
<rect x="616" y="490" width="144" height="28" rx="6" fill="#712b13" stroke="#f0997b" stroke-width="0.75"/><text x="688" y="509" text-anchor="middle" fill="#f5c4b3" font-size="11">own only</text>
<rect x="768" y="490" width="144" height="28" rx="6" fill="#712b13" stroke="#f0997b" stroke-width="0.75"/><text x="840" y="509" text-anchor="middle" fill="#f5c4b3" font-size="11">own only</text>
<rect x="920" y="490" width="144" height="28" rx="6" fill="#0c3d28" stroke="#5dca8d" stroke-width="0.75"/><text x="992" y="509" text-anchor="middle" fill="#9ce6bb" font-size="11">&#10003; any</text>

<!-- ===== ROW 11: Change a user's role ===== -->
<text x="52" y="546" fill="#d3d1c7" font-size="11.5">Change a user's role</text>
<rect x="464" y="526" width="144" height="28" rx="6" fill="#5b1717" stroke="#d98a8a" stroke-width="0.75"/><text x="536" y="545" text-anchor="middle" fill="#f0c6c6" font-size="12">&#10007;</text>
<rect x="616" y="526" width="144" height="28" rx="6" fill="#5b1717" stroke="#d98a8a" stroke-width="0.75"/><text x="688" y="545" text-anchor="middle" fill="#f0c6c6" font-size="12">&#10007;</text>
<rect x="768" y="526" width="144" height="28" rx="6" fill="#5b1717" stroke="#d98a8a" stroke-width="0.75"/><text x="840" y="545" text-anchor="middle" fill="#f0c6c6" font-size="12">&#10007;</text>
<rect x="920" y="526" width="144" height="28" rx="6" fill="#0c3d28" stroke="#5dca8d" stroke-width="0.75"/><text x="992" y="545" text-anchor="middle" fill="#9ce6bb" font-size="11">&#10003; *</text>

<!-- ===== ROW 12: Grant credits / refund ===== -->
<text x="52" y="582" fill="#d3d1c7" font-size="11.5">Grant credits / mint pool / refund order</text>
<rect x="464" y="562" width="144" height="28" rx="6" fill="#5b1717" stroke="#d98a8a" stroke-width="0.75"/><text x="536" y="581" text-anchor="middle" fill="#f0c6c6" font-size="12">&#10007;</text>
<rect x="616" y="562" width="144" height="28" rx="6" fill="#5b1717" stroke="#d98a8a" stroke-width="0.75"/><text x="688" y="581" text-anchor="middle" fill="#f0c6c6" font-size="12">&#10007;</text>
<rect x="768" y="562" width="144" height="28" rx="6" fill="#5b1717" stroke="#d98a8a" stroke-width="0.75"/><text x="840" y="581" text-anchor="middle" fill="#f0c6c6" font-size="12">&#10007;</text>
<rect x="920" y="562" width="144" height="28" rx="6" fill="#0c3d28" stroke="#5dca8d" stroke-width="0.75"/><text x="992" y="581" text-anchor="middle" fill="#9ce6bb" font-size="12">&#10003;</text>

<!-- ===== ROW 13: Hard-delete a ledger row (COUNTEREXAMPLE) ===== -->
<rect x="40" y="598" width="4" height="28" rx="2" fill="#d98a8a"/>
<text x="52" y="618" fill="#f0c6c6" font-size="11.5" font-weight="600">Hard-delete a ledger row&#160;&#160;**</text>
<rect x="464" y="598" width="144" height="28" rx="6" fill="#5b1717" stroke="#d98a8a" stroke-width="0.75"/><text x="536" y="617" text-anchor="middle" fill="#f0c6c6" font-size="12">&#10007;</text>
<rect x="616" y="598" width="144" height="28" rx="6" fill="#5b1717" stroke="#d98a8a" stroke-width="0.75"/><text x="688" y="617" text-anchor="middle" fill="#f0c6c6" font-size="12">&#10007;</text>
<rect x="768" y="598" width="144" height="28" rx="6" fill="#5b1717" stroke="#d98a8a" stroke-width="0.75"/><text x="840" y="617" text-anchor="middle" fill="#f0c6c6" font-size="12">&#10007;</text>
<rect x="920" y="598" width="144" height="28" rx="6" fill="#5b1717" stroke="#d98a8a" stroke-width="1"/><text x="992" y="617" text-anchor="middle" fill="#f0c6c6" font-size="12">&#10007;</text>

<!-- ===== LEGEND ===== -->
<rect x="40" y="648" width="14" height="14" rx="3" fill="#0c3d28" stroke="#5dca8d" stroke-width="0.75"/><text x="60" y="659" fill="#c2c0b6" font-size="10">allowed</text>
<rect x="138" y="648" width="14" height="14" rx="3" fill="#5b1717" stroke="#d98a8a" stroke-width="0.75"/><text x="158" y="659" fill="#c2c0b6" font-size="10">denied</text>
<rect x="232" y="648" width="14" height="14" rx="3" fill="#712b13" stroke="#f0997b" stroke-width="0.75"/><text x="252" y="659" fill="#c2c0b6" font-size="10">own only &#8212; the computed Owner permission (record.ownerId === you), not a role</text>
<rect x="708" y="648" width="14" height="14" rx="3" fill="#2a2926" stroke="#6f6e68" stroke-width="0.75"/><text x="728" y="659" fill="#c2c0b6" font-size="10">not applicable</text>

<!-- ===== COUNTEREXAMPLE CALLOUTS ===== -->
<text x="40" y="690" fill="#f5c4b3" font-size="10.5">*&#160; Moderators are NOT a superset of members: a mod may edit only their OWN design's metadata, never another member's. Admin overrides; mod does not.</text>
<text x="40" y="708" fill="#f5c4b3" font-size="10.5">&#160;&#160; Role-change has its own guards: no self-promotion, and the last admin cannot be demoted.</text>
<text x="40" y="726" fill="#f0c6c6" font-size="10.5">** No one may hard-delete an append-only ledger row &#8212; not even an admin. Mistakes are fixed with new correction rows, never by erasing history.</text>

<!-- ===== FOOTER ===== -->
<text x="40" y="756" fill="#b5b3aa" font-size="10">Two layers enforce every cell: the Astro middleware guards the URL prefix, and each Convex function re-checks auth, role, ownership and state. Neither alone is enough.</text>
<text x="40" y="774" fill="#b5b3aa" font-size="10">Source: docs/concepts/owner-permission-pattern.md, append-only-ledger.md, README (Key teaching concepts), MILESTONES M4/M8/M9/M11.</text>
</svg>
